<svg xmlns="http://www.w3.org/2000/svg" version="1.1" xmlns:xlink="http://www.w3.org/1999/xlink" viewBox="0 0 9.741260688645127 9.741260688645127"><g transform="matrix(0.8571428571428572,0,0,0.8571428571428572,3.1267344339661243,3.3624511493808136)"><g><path d=" M -0.8159316638698734 2.633629411151985 L -1.488401446439377 2.769203713772078 L -1.5437378964883945 2.494726251498811 Q -1.564884325614269 2.389836649844384 -1.5434363529341457 2.3090035844075674 Q -1.5219883802540224 2.228170518970751 -1.455981515344571 2.1735482361108645 Q -1.3899746504351191 2.1189259532509785 -1.274302005619957 2.0956055921588925 Q -1.1596096374557705 2.072482861245553 -1.077104589742365 2.0971641720253458 Q -0.9945995420289597 2.1218454828051385 -0.9435070425368626 2.1880539150147147 Q -0.8924145430447655 2.254262347224291 -0.8712681139188909 2.359151948878718 L -0.8159316638698734 2.633629411151985 M -0.9659525885731428 2.511876702142386 L -0.9916445118101866 2.3844407375155123 Q -1.0005378698537788 2.3403282882215946 -1.0201985225725934 2.3085877977611404 Q -1.039859175291408 2.2768473073006863 -1.069401724002464 2.259340513886275 Q -1.0989442727135201 2.2418337204718637 -1.1390564859210524 2.2376791625418924 Q -1.1791686991285844 2.2335246046119206 -1.229162808328358 2.243603743727992 L -1.2585711078576365 2.2495326490903866 Q -1.30856521705741 2.2596117882064575 -1.3439343059750264 2.2789838698999088 Q -1.3793033948926428 2.2983559515933605 -1.3997549553813602 2.325941884123843 Q -1.4202065158700776 2.353527816654325 -1.426523194402126 2.3905055068515613 Q -1.4328398729341738 2.4274831970487973 -1.4239465148905819 2.471595646342715 L -1.3982545916535378 2.599031610969589 L -0.9659525885731428 2.511876702142386 M -0.9443105035754044 1.7573665390362576 L -1.6275356675845862 1.6957274664878599 L -1.578296291846216 1.1499440993201753 L -1.4567897757979358 1.1609061501232432 L -1.4925512202210587 1.5572962598545177 L -1.3401700976359205 1.57104374979607 L -1.3085418854828068 1.2204675723452945 L -1.1880313244841028 1.2313397702729274 L -1.2196595366372165 1.5819159477237028 L -1.0533350433580133 1.596921377921345 L -1.0170344816822805 1.1945555378926138 L -0.8945320105844242 1.2056074415711167 L -0.9443105035754044 1.7573665390362576 M -0.7058961127517028 0.653970008695237 Q -0.745372860143951 0.7534214361124874 -0.8082668912650515 0.8102245244910081 Q -0.8711609223861521 0.8670276128695289 -0.9591608690025687 0.8745946066919008 Q -1.0471608156189853 0.8821616005142725 -1.1605540319265046 0.8371507296558214 Q -1.3278554986097295 0.7707412480613851 -1.3765312720190328 0.6562023067226153 Q -1.425207045428336 0.5416633653838453 -1.365807453557757 0.39202149796162744 Q -1.3333405958893658 0.31022966980538413 -1.279631108599881 0.25623623524986927 Q -1.225921621310396 0.20224280069435452 -1.155212332390573 0.18673646455544102 Q -1.0845030434707499 0.1712301284165274 -0.9999228575364527 0.204803810778159 L -1.0552640921984828 0.3442216996808466 Q -1.0998778166473429 0.32651250458899694 -1.137744112711998 0.3324617585206996 Q -1.1756104087766532 0.33841101245240235 -1.204973254685314 0.3649501021154682 Q -1.2343361005939746 0.39148919177853414 -1.2516763541214107 0.43517346363470955 Q -1.2752886142438769 0.49465842956652284 -1.267363374349924 0.5424542512732713 Q -1.259438134455971 0.59025007298002 -1.2215540442168327 0.6262680644114258 Q -1.1836699539776943 0.6622860558428315 -1.1186082724897735 0.688111965351779 L -1.0897952421165515 0.6995491538485985 Q -1.0228746554432615 0.726112946486373 -0.9704173734097885 0.7254175605067378 Q -0.9179600913763155 0.7247221745271025 -0.8802463694967951 0.6961184128515086 Q -0.8425326476172746 0.6675146511759145 -0.8189203874948084 0.6080296852441012 Q -0.8004733092741317 0.561557055609872 -0.8026231654664688 0.5208953030855124 Q -0.804773021658806 0.4802335505611527 -0.8280661259291265 0.44946942708181437 Q -0.851359230199447 0.41870530360247615 -0.8959729546483071 0.4009961085106264 L -0.8428453693727581 0.2671549351640463 Q -0.758265183438461 0.30072861752567803 -0.7170712196717206 0.3595784888015312 Q -0.6758772559049803 0.41842836007738426 -0.6742843139297325 0.49437381771550437 Q -0.6726913719544847 0.5703192753536246 -0.7058961127517028 0.653970008695237 M -0.46435137583145375 0.13452196926408166 L -1.0008400617158375 -0.2930010007831978 L -0.9079815740525072 -0.40952696900006835 L -0.663980888927248 -0.21508503510101407 L -0.7260038666854436 -0.637886584566016 L -0.6113329825911296 -0.7817844245116816 L -0.5564214298078121 -0.40301045316343154 L -0.07172824007374812 -0.35817172185422996 L -0.18265985620846492 -0.2189662027763578 L -0.5400606882171097 -0.25826817829322557 L -0.5310317976731005 -0.10913910957909356 L -0.37149288816812337 0.017996001047211135 L -0.46435137583145375 0.13452196926408166 M 0.1140854755695915 -0.5174922600454885 L -0.2798822434605484 -1.0790841370898319 L 0.012374753776813963 -1.284108154136129 Q 0.07295463555710752 -1.3266061296583307 0.12927083116501403 -1.3325210355960457 Q 0.1855870267729205 -1.3384359415337608 0.2348902264181431 -1.312557485151215 Q 0.2841934260633656 -1.2866790287686691 0.3232456197864699 -1.231011029294886 Q 0.36229781350957413 -1.1753430298211025 0.3696056634648903 -1.1187824841286274 Q 0.3769135134202066 -1.062221938436152 0.3512428288773239 -1.0100106757134424 Q 0.3255721443344411 -0.9577994129907329 0.2649922625541475 -0.9153014374685312 L 0.09880691118388263 -0.7987191532657347 L 0.23606388618126373 -0.6030625080564082 L 0.1140854755695915 -0.5174922600454885 M 0.028742681268901504 -0.8985940934981107 L 0.1785550916174654 -1.0036904383705822 Q 0.2170315030184627 -1.0306823957968456 0.22240098472519296 -1.067430438822306 Q 0.22777046643192325 -1.1041784818477665 0.2002042120391438 -1.1434735402998486 Q 0.18125241214410792 -1.1704888929856554 0.15961276131881513 -1.1821818614778477 Q 0.13797311049352234 -1.1938748299700404 0.11348063529699892 -1.1913512098029617 Q 0.0889881601004755 -1.188827589635883 0.06197280741466893 -1.1698757897408472 L -0.08783960293389498 -1.0647794448683756 L 0.028742681268901504 -0.8985940934981107 M 0.8141916128548092 -0.960051819261396 L 0.5949042122625892 -1.6100587699484692 L 0.9511762435429674 -1.73025128106024 Q 1.023188675397512 -1.7545455120296405 1.079669886513674 -1.7451050252386144 Q 1.136151097629836 -1.7356645384475884 1.175342952871672 -1.6977007598856095 Q 1.2145348081135081 -1.6597369813236305 1.2346734469434058 -1.6000424654442056 Q 1.2560907295085353 -1.536557821572436 1.2441273076570587 -1.478170095656764 Q 1.2321638858055821 -1.4197823697410923 1.186785407127487 -1.3759783325657169 L 1.4073466436567157 -1.160159563825142 L 1.2510038639725072 -1.1074155097468383 L 1.0564372587521123 -1.3056195362776104 L 0.8754586471176647 -1.2445642979203013 L 0.95537388056964 -1.0076812983987733 L 0.8141916128548092 -0.960051819261396 M 0.8377386569283324 -1.3563730736944626 L 1.0338777805321577 -1.4225428869926982 Q 1.0765167204460329 -1.4369276290140538 1.0914143447184683 -1.4709762823066193 Q 1.1063119689909038 -1.505024935599185 1.0912879051019324 -1.5495589395092324 Q 1.0816980770876954 -1.5779848994518155 1.0644025150318783 -1.5948405671387802 Q 1.047106952976061 -1.6116962348257446 1.023692510744366 -1.615406207194726 Q 1.0002780685126706 -1.6191161795637075 0.9709045765720012 -1.6092066906156623 L 0.7747654529681759 -1.543036877317427 L 0.8377386569283324 -1.3563730736944626 M 1.974598546082889 -1.1948514490400617 Q 1.8656205938208688 -1.1926592080001952 1.78585219355248 -1.2300624474136752 Q 1.706083793284091 -1.2674656868271552 1.662503416796437 -1.3456049905429825 Q 1.6189230403087829 -1.42374429425881 1.616529676237736 -1.5427202237925752 Q 1.6140960875604529 -1.6636957487806892 1.6545087763070154 -1.7430245870948449 Q 1.694921465053578 -1.8223534254090006 1.7731311618303185 -1.862434509851544 Q 1.8513408586070592 -1.9025155942940872 1.9603188108690792 -1.9047078353339537 Q 2.0712963585854482 -1.9069403009800565 2.150554803838691 -1.8700269042786046 Q 2.2298132490919333 -1.8331135075771527 2.273383569428028 -1.7554741027249126 Q 2.3169538897641235 -1.6778346978726726 2.3193874784414064 -1.5568591728845584 Q 2.3217808425124535 -1.4378832433507935 2.2813782099174498 -1.3580545061730505 Q 2.2409755773224465 -1.2782257689953076 2.163275835560852 -1.237654841840736 Q 2.085576093799258 -1.1970839146861643 1.974598546082889 -1.1948514490400617 M 1.9721448451024877 -1.3168267717553501 Q 2.021134933734038 -1.3178122746081342 2.0578458773958417 -1.3325535980039447 Q 2.0945568210576457 -1.3472949213997552 2.118988619749703 -1.3757920653385922 Q 2.1434204184417602 -1.404289209277429 2.1556032406187478 -1.4450424771685308 Q 2.1677860627957353 -1.4857957450596324 2.1667402230335973 -1.5377852268727061 L 2.1661167416369382 -1.5687789564151156 Q 2.1650507895716817 -1.6217682359553638 2.151228814690574 -1.6624984828289837 Q 2.1374068398094654 -1.7032287297026034 2.111858808294357 -1.730220359621951 Q 2.0863107767792486 -1.7572119895412985 2.0490366886301397 -1.770465002506374 Q 2.0117626004810307 -1.7837180154714494 1.9627725118494803 -1.7827325126186655 Q 1.9147822209451046 -1.7817671220689992 1.8780712772833006 -1.7670257986731888 Q 1.841360333621497 -1.7522844752773783 1.8169184787778807 -1.7242872302021288 Q 1.7924766239342644 -1.696289985126879 1.780803756772423 -1.655046874523749 Q 1.7691308896105815 -1.6138037639206193 1.7701968416758378 -1.560814484380371 L 1.770820323072497 -1.5298207548379616 Q 1.7718661628346353 -1.4778312730248877 1.785178182700597 -1.4375908688632961 Q 1.798490202566559 -1.3973504647017048 1.8240482902332265 -1.3698589359187698 Q 1.8496063778998941 -1.342367407135835 1.886880466049003 -1.3291143941707597 Q 1.924154554198112 -1.3158613812056843 1.9721448451024877 -1.3168267717553501 M 2.9301834178811843 -1.091867071416169 L 3.213092417341655 -1.7168138675710698 L 3.419889680792329 -1.623198207399748 L 3.3644140644841003 -1.2630212286861964 Q 3.362044399450836 -1.243237783899453 3.356787907892464 -1.21707733098868 Q 3.3515314163340926 -1.1909168780779071 3.3469366272506598 -1.1650057238527713 Q 3.3423418381672265 -1.1390945696276358 3.3377377670235093 -1.1192249312589189 L 3.345025776308115 -1.115925700944511 Q 3.3538586430473827 -1.1305879130956953 3.368105137898834 -1.1499344214227183 Q 3.3823516327502854 -1.1692809297497413 3.3989525420248654 -1.191403538349478 Q 3.415553451299446 -1.2135261469492151 3.432240554156 -1.2334143494384997 L 3.6658599941477568 -1.5118491842884838 L 3.8690132529561283 -1.4198831392743658 L 3.5861042534956575 -0.7949363431194649 L 3.4521870828910357 -0.8555597001467086 L 3.5862183144138537 -1.1516350773337973 Q 3.6047764849323976 -1.192630129559702 3.62399635792588 -1.2338744804712438 Q 3.6432162309193625 -1.2751188313827857 3.6586044614964592 -1.3054742651584066 Q 3.673992692073556 -1.3358296989340275 3.6781167299665656 -1.344939710539784 L 3.6708287206819605 -1.348238940854192 Q 3.664470276678498 -1.3390427356664616 3.645471856189802 -1.315261229849237 Q 3.6264734357011057 -1.2914797240320124 3.60512060078928 -1.264922117942074 Q 3.5837677658774547 -1.2383645118521356 3.5674930668102016 -1.2193873105234267 L 3.313714906483536 -0.9182450761204572 L 3.1952847556087005 -0.9718575687295844 L 3.2527852626222993 -1.3607556166716885 Q 3.2559797352341655 -1.3823610637795831 3.260900734524926 -1.4114176252757467 Q 3.2658217338156863 -1.4404741867719104 3.272478541845625 -1.4709403467999242 Q 3.2791353498755624 -1.501406506827938 3.28274222627673 -1.5239229550964084 L 3.275454216992125 -1.5272221854108161 Q 3.265230315841574 -1.5022127502859726 3.2506761749033632 -1.4676378029750845 Q 3.2361220339651524 -1.4330628556641962 3.220743085448339 -1.396665906032157 Q 3.205364136931526 -1.3602689564001174 3.1917548118845938 -1.3302059181011208 L 3.057723580361776 -1.034130540914032 L 2.9301834178811843 -1.091867071416169 M 3.780349160867798 -0.6657420529172257 L 4.438956747555428 -0.9921283987675005 L 4.574421111731732 -0.8676076935080546 L 4.304537352680451 -0.1839010630002394 L 4.186006034026185 -0.2928566801022546 L 4.241291584925024 -0.4254067003278732 L 4.021161993138531 -0.6277528463744728 L 3.8937269439284 -0.5615236365587765 L 3.780349160867798 -0.6657420529172257 M 4.134028581675023 -0.6869992234125177 L 4.290843307596505 -0.5428529722154418 L 4.3603034868035255 -0.7085553665992543 Q 4.364802781918464 -0.7193607515284778 4.371243091312767 -0.7344942380701064 Q 4.37768340070707 -0.749627724611735 4.3861242007878944 -0.7676763504318787 Q 4.3945650008687185 -0.7857249762520224 4.403035539153121 -0.8030671209052211 Q 4.411506077437524 -0.8204092655584199 4.4179761250354055 -0.8348362709331034 L 4.413558808812265 -0.8388967287133028 Q 4.397019595655683 -0.8282922754901912 4.373872895125649 -0.8149326252487772 Q 4.350726194595615 -0.8015729750073632 4.328932979992314 -0.789685763506996 Q 4.307139765389013 -0.7777985520066288 4.293307524085897 -0.7701389762656107 L 4.134028581675023 -0.6869992234125177 M 4.44285627066298 0.002654905682216685 L 5.033642044480928 -0.3460113666389367 L 5.224747756423717 -0.022198755916563007 Q 5.263375506710026 0.04325272922944873 5.265790128953661 0.10046653525055299 Q 5.268204751197296 0.15768034127165725 5.239142866033824 0.20386103887081852 Q 5.2100809808703525 0.2500417364699798 5.155825144499317 0.2820621084178408 Q 5.098124493120595 0.3161155198544549 5.038524703731005 0.31645479071451454 Q 4.978924914341415 0.31679406157457424 4.926701600324811 0.2814284642641488 L 4.761026950652837 0.5417684543848921 L 4.677164071741773 0.39966983531789296 L 4.830965565187293 0.1683992132883594 L 4.733887929599334 0.003909296671408935 L 4.518586991619032 0.13097426471847648 L 4.44285627066298 0.002654905682216685 M 4.835509972326037 -0.05606536824680697 L 4.940719765869008 0.12220380840088282 Q 4.96359146011748 0.1609579772373371 4.99998106010002 0.16851092455018984 Q 5.03637066008256 0.17606387186304256 5.076847236422857 0.15217565787019388 Q 5.102683348980493 0.1369278617045458 5.115608371052728 0.1165270331813647 Q 5.128533393124963 0.09612620465818361 5.127333177080143 0.0724500672737673 Q 5.126132961035323 0.048773929889350975 5.110376904997485 0.02207661357979357 L 5.005167111454514 -0.15619256306789622 L 4.835509972326037 -0.05606536824680697 M 4.837254403182065 0.7830825683471895 L 5.490526156673879 0.5737215975581451 L 5.535999603681995 0.7156129842495157 L 4.882727850190181 0.9249739550385601 L 4.837254403182065 0.7830825683471895 M 4.966343677149109 1.2134034478876146 L 5.649978564295812 1.1564882383569863 L 5.66134501284639 1.2930159053236019 L 5.315519487461803 1.5987620516484158 Q 5.309041421932877 1.6053221329743554 5.297331219012238 1.6153281885187478 Q 5.285621016091599 1.6253342440631402 5.274326122550032 1.6343022639050369 Q 5.263031229008464 1.6432702837469337 5.256304263146314 1.6468407081319985 L 5.256719097035021 1.651823469700123 Q 5.273660486366645 1.6504130344785186 5.290103599541457 1.6490440826457848 Q 5.306546712716267 1.647675130813051 5.319501892793392 1.6465965627024124 L 5.688226248834616 1.6158988549380795 L 5.699924564496159 1.7564127311591946 L 5.016289677349457 1.813327940689823 L 5.004923228798879 1.6768002737232073 L 5.359219924339642 1.3643281125169708 Q 5.372341988952977 1.3532010544923414 5.388370743729444 1.3408285438208627 Q 5.404399498505913 1.328456033149384 5.4129536354398295 1.3227265705815863 L 5.412538801551123 1.3177438090134617 Q 5.397590516846749 1.3189883106795832 5.383140508299187 1.320191328956834 Q 5.368690499751626 1.321394347234085 5.355735319674501 1.3224729153447239 L 4.9780419928106525 1.3539173241087297 L 4.966343677149109 1.2134034478876146 M 4.9922859114406615 2.1135992571871243 L 5.663445611184542 2.255517041272501 L 5.550076885705263 2.7916621075402075 L 5.43071612277705 2.7664230847145284 L 5.513053262814922 2.3770330548339675 L 5.363363125700033 2.345380837683731 L 5.2905423385308605 2.6897659897389 L 5.172159942511896 2.664733844149497 L 5.244980729681068 2.3203486920943277 L 5.081593455836712 2.2858001936362258 L 4.998015052381184 2.681060424972272 L 4.877675922543725 2.655614524910317 L 4.9922859114406615 2.1135992571871243" fill="#ffffff" fill-rule="nonzero"></path></g><g><path d=" M 0.2208407288647905 4.127185266462881 L 0.5192243757388861 4.330650168551951 L 0.47812035511483153 4.390929693172981 L 0.24604418532386824 4.232679213770371 L 0.13198052809211663 4.399954894593727 L 0.3369309118036167 4.5397085647155135 L 0.29582689117956207 4.599988089336542 L 0.09087650746806197 4.460234419214757 L -0.06531877090334559 4.689296612774669 L -0.13162624798647796 4.644082190088208 L 0.2208407288647905 4.127185266462881 M 0.6187391525483208 4.383359813945388 L 0.6911281160036005 4.418013291489066 L 0.45249166837327504 4.916510017101561 L 0.6828201884582562 5.026771082013262 L 0.6513170270549129 5.092579230608971 L 0.348599543514652 4.9476646881535915 L 0.6187391525483208 4.383359813945388 M 0.9059538281285806 5.111760363009928 Q 0.8657707229323955 5.0152447375351255 0.908866586236901 4.861573313496565 Q 0.9519624495414063 4.707901889458003 1.0364727284222255 4.646355478778856 Q 1.1209830073030447 4.58480906809971 1.233382677456964 4.616330613831005 Q 1.3457823476108832 4.647852159562301 1.3859654528070684 4.744367785037102 Q 1.4261485580032534 4.840883410511905 1.383052694698748 4.994554834550467 Q 1.3399568313942427 5.148226258589029 1.2554465525134235 5.209772669268175 Q 1.1709362736326043 5.271319079947322 1.058536603478685 5.239797534216026 Q 0.9461369333247657 5.208275988484731 0.9059538281285806 5.111760363009928 M 1.209032379849544 5.145608237252239 Q 1.2658186445238082 5.101860842171567 1.296108879874975 4.993851784133035 L 1.308421983676262 4.949945662979161 Q 1.3387122190274288 4.841936604940629 1.3129549759324086 4.775040574713537 Q 1.287197732837388 4.708144544486444 1.2134354492988786 4.687458530100282 Q 1.1396731657603691 4.666772515714119 1.0828869010861049 4.710519910794791 Q 1.0261006364118408 4.754267305875464 0.9958104010606741 4.862276363913995 L 0.9834972972593868 4.906182485067871 Q 0.9532070619082202 5.014191543106402 0.9789643050032405 5.081087573333495 Q 1.0047215480982608 5.147983603560586 1.0784838316367704 5.168669617946749 Q 1.1522461151752799 5.189355632332911 1.209032379849544 5.145608237252239 M 1.5980391472193298 5.269605969225729 Q 1.5393933902260044 5.183057583390523 1.5509368816922224 5.023875587534304 Q 1.5624803731584405 4.864693591678085 1.6329994356598758 4.787511924632609 Q 1.7035184981613112 4.710330257587133 1.8199487579875742 4.718773497059567 Q 1.9363790178138374 4.727216736532001 1.9950247748071628 4.813765122367208 Q 2.053670531800488 4.900313508202415 2.04212704033427 5.059495504058634 Q 2.030583548868052 5.218677499914853 1.9600644863666168 5.295859166960328 Q 1.8895454238651812 5.3730408340058045 1.7731151640389182 5.36459759453337 Q 1.6566849042126552 5.356154355060936 1.5980391472193298 5.269605969225729 M 1.9017729024863474 5.242254680126393 Q 1.9486802954441418 5.188049413611939 1.9567937208746837 5.076167210810139 L 1.9600918612936031 5.030686640565505 Q 1.9682052867241449 4.918804437763705 1.9296092076220275 4.858398667261682 Q 1.8910131285199099 4.797992896759659 1.814605770508925 4.792452020855874 Q 1.7381984124979395 4.786911144952089 1.6912910195401452 4.841116411466544 Q 1.6443836265823506 4.8953216779809985 1.6362702011518089 5.007203880782798 L 1.6329720607328895 5.0526844510274325 Q 1.6248586353023475 5.164566653829232 1.6634547144044651 5.224972424331256 Q 1.7020507935065825 5.285378194833278 1.7784581515175677 5.290919070737063 Q 1.854865509528553 5.296459946640848 1.9017729024863474 5.242254680126393 M 2.1910820854449975 4.740504735528638 L 2.440936512740206 4.709981038095604 Q 2.5305582094874004 4.699032320538103 2.5842330466774266 4.7397922735879305 Q 2.6379078838674532 4.780552226637758 2.6475294841452572 4.859310687415595 Q 2.654607442970309 4.917247945918832 2.6308366897308373 4.963334599544672 Q 2.607065936491366 5.009421253170512 2.556661564998995 5.033035776973864 L 2.7168679796652144 5.306554951109417 L 2.6281515525821333 5.317393075560277 L 2.4796725939274205 5.057141691877477 L 2.3131029757306147 5.0774908234995 L 2.3466126870429673 5.351787531725761 L 2.266948956601017 5.361519725110207 L 2.1910820854449975 4.740504735528638 M 2.471730415060219 4.9846095256417895 Q 2.518804437594099 4.978858684096435 2.544344680539833 4.947256345096404 Q 2.569884923485567 4.915654006096373 2.5642446750468544 4.869485253226607 Q 2.5584938335015 4.822411230692727 2.5281285434855065 4.799476203632691 Q 2.497763253469513 4.776541176572654 2.447068152279181 4.782734390544574 L 2.279593264418262 4.803194115273238 L 2.3042555271993006 5.005069250370454 L 2.471730415060219 4.9846095256417895 M 2.7396702977623497 4.6530820550218435 L 2.8173812708553663 4.63303136433707 L 2.9736855186934865 5.238823722766721 L 2.89597454560047 5.258874413451495 L 2.7396702977623497 4.6530820550218435 M 2.9575377188615595 4.598331771936339 L 3.02181612785695 4.57240033385394 L 3.3845456555850877 4.849919775511857 Q 3.3976168225624153 4.860381243948497 3.4209695681954564 4.882921276055805 Q 3.4443223138284975 4.9054613081631135 3.451458622445444 4.913399949566005 L 3.4536547249310203 4.911530571628602 Q 3.4499014904717256 4.902227117695059 3.439079149948038 4.8790574032904885 Q 3.4282568094243504 4.855887688885918 3.420067934240435 4.835589243940006 L 3.2730093840626218 4.471063003452987 L 3.3398250986762514 4.444107955972599 L 3.5738904476831657 5.024305174009942 L 3.5121493443060143 5.0492130026943505 L 3.1456810607030716 4.767301356065281 Q 3.130235950381592 4.755830756815141 3.107053806314882 4.733713608977539 Q 3.0838716622481726 4.711596461139938 3.077076556763889 4.70450358827646 L 3.074880454278313 4.706372966213863 Q 3.0791382541443575 4.71448944847533 3.0897899931017134 4.737236278610194 Q 3.1004417320590694 4.7599831087450575 3.109313013508311 4.781973090769796 L 3.258418782482104 5.151573942493293 L 3.1916030678684737 5.178528989973681 L 2.9575377188615595 4.598331771936339 M 3.8131552919535254 4.5130771006141615 L 4.017946538021088 4.379661484623773 L 4.19566808618739 4.652461763900339 L 4.151347592635455 4.6813352927340794 L 4.098994531103539 4.632718733042597 Q 4.096953857383765 4.729832787570093 4.007548723839344 4.788077664700226 Q 3.9074455401272146 4.853292014307468 3.8100314303330345 4.819881433752688 Q 3.712617320538855 4.786470853197908 3.62450327564968 4.651216933220451 Q 3.5373848696858063 4.517491306124095 3.5475996617668866 4.412875125163689 Q 3.557814453847967 4.308258944203283 3.657917637560096 4.243044594596041 Q 3.7435020389017644 4.187288814779162 3.8272086962264753 4.201329407342277 Q 3.9109153535511862 4.215369999905391 3.970653689069271 4.307067572771464 L 3.9018805094197164 4.351871324410028 Q 3.8605614940197075 4.288447169844328 3.807674672327628 4.278274492944408 Q 3.754787850635548 4.268101816044488 3.6982410140348034 4.30494045628064 Q 3.6317602737069006 4.3482507495312515 3.6264438707074658 4.420287309493173 Q 3.621127467708031 4.492323869455095 3.682359261614068 4.586313881642821 L 3.707250234746603 4.6245212036703505 Q 3.7689798481152907 4.719275362298626 3.8348622275760125 4.744383729282432 Q 3.900744607036734 4.769492096266238 3.967225347364637 4.726181803015626 Q 4.032177794811439 4.683867148690316 4.038466245005954 4.627524250769184 Q 4.044754695200469 4.571181352848052 3.995470568398049 4.495530855233542 L 3.987505456995638 4.483304512184732 L 3.8514873905776295 4.571916376536558 L 3.8131552919535254 4.5130771006141615" fill="#ffffff" fill-rule="nonzero"></path></g><g transform="matrix(1,0,0,1,0,0)" clip-path="url(#SvgjsClipPath30274)"><g clip-path="url(#SvgjsClipPath3027069a208eb-8916-42ef-8664-70564cfa6809)"><path d=" M 1.6579461356412761 0.6516364022268027 L 1.8459009375109472 0.9772132820612077 L 1.845418294952955 0.9781096182403368 L 1.6573945441464273 0.6525327384059317 L 1.6579461356412761 0.6516364022268027 Z" fill="#ffffff" transform="matrix(1,0,0,1,0,0)" fill-rule="nonzero"></path></g><g clip-path="url(#SvgjsClipPath3027069a208eb-8916-42ef-8664-70564cfa6809)"><path d=" M 1.6811819273617747 1.915470414798731 L 2.04316384585619 2.5424230976310573 L 3.1266274396126152 2.5424230976310573 L 2.0343383819386114 0.6507400660476738 L 2.033786790443763 0.6516364022268027 L 1.8459009375109472 0.3260595223923976 L 1.846314631132084 0.3251631862132686 L 2.034131535128043 0 L 2.2221552859345706 0.325507930897549 L 3.5020544007939653 2.5424230976310573 L 3.690078151600493 2.867999977465462 L 3.314513292545431 2.867999977465462 L 2.2310496987890045 2.867999977465462 L 1.8551400950496622 2.867999977465462 L 1.6672542421168468 2.5424230976310573 L 1.4932271254921032 2.241047294633136 L 1.6811819273617747 1.915470414798731 Z" fill="#ffffff" transform="matrix(1,0,0,1,0,0)" fill-rule="nonzero"></path></g><g clip-path="url(#SvgjsClipPath3027069a208eb-8916-42ef-8664-70564cfa6809)"><path d=" M 0.566277618398977 2.5424230976310573 L 1.4695086912136122 0.9781096182403368 L 1.6573945441464273 0.6525327384059317 L 1.845418294952955 0.9781096182403368 L 2.566003634035837 2.226430120019647 L 2.1903008771070622 2.226774864703928 L 1.6573945441464273 1.303686498074742 L 0.9421872221383197 2.5424230976310573 L 1.280105961669963 2.5424230976310573 L 1.4681297124764905 2.867999977465462 L 0.7542324202686485 2.867999977465462 L 0.3782538675924495 2.867999977465462 L 0.566277618398977 2.5424230976310573 Z" fill="#ffffff" transform="matrix(1,0,0,1,0,0)" fill-rule="nonzero"></path></g><g clip-path="url(#SvgjsClipPath3027069a208eb-8916-42ef-8664-70564cfa6809)"><path d=" M 0.1879548018696714 3.193507908363012 L 3.8810667066918323 3.193507908363012 L 4.069090457498359 3.5190847881974165 L 0 3.5190847881974165 L 0.1879548018696714 3.193507908363012 Z" fill="#ffffff" transform="matrix(1,0,0,1,0,0)" fill-rule="nonzero"></path></g></g><g><path d=" M -2.049313391519624 1.7595423940987085 A 4.083858620268804 4.083858620268804 0 0 1 6.118403849017984 1.7595423940987085 A 4.083858620268804 4.083858620268804 0 0 1 -2.0493133915196236 1.7595423940987085 Z M -1.9993133915196242 1.7595423940987076 A 4.033858620268803 4.033858620268803 0 0 0 6.068403849017981 1.7595423940987076 A 4.033858620268803 4.033858620268803 0 0 0 -1.9993133915196246 1.7595423940987076 Z" fill="#ffffff" fill-rule="nonzero"></path></g><g><path d=" M -2.0412463619573793 1.759542394098709 A 4.07579159070656 4.07579159070656 0 0 1 6.110336819455741 1.759542394098709 A 4.07579159070656 4.07579159070656 0 0 1 -2.041246361957379 1.759542394098709 Z M -1.9912463619573795 1.759542394098708 A 4.025791590706559 4.025791590706559 0 0 0 6.060336819455738 1.759542394098708 A 4.025791590706559 4.025791590706559 0 0 0 -1.99124636195738 1.759542394098708 Z" fill="#ffffff" fill-rule="nonzero"></path></g><g transform="matrix(-0.719824578514053,-0.6941560171654971,0.6941560171654971,-0.719824578514053,-3.727676408365192,5.764223242129711)"><g clip-path="url(#SvgjsClipPath30275)"><path d=" M -0.7000384069371295 3.8552286503153264 C -0.667093445108558 3.8552286503153264 -0.6495914341371294 3.8346380491724688 -0.6495914341371294 3.805811207572469 C -0.6495914341371294 3.7903682567153263 -0.6531947893371294 3.776984365972469 -0.667093445108558 3.749187054429612 C -0.6866545161942723 3.7105796772867548 -0.6902578713942723 3.6982253166010404 -0.6938612265942723 3.6627065296296117 C -0.6686377401942722 3.665280354772469 -0.6470176089942723 3.6709427700867545 -0.6290008329942722 3.6791790105438977 C -0.5826719804228437 3.700284376715326 -0.5692880896799866 3.7059467920296116 -0.5497270185942723 3.7059467920296116 C -0.522959237108558 3.7059467920296116 -0.5013391059085579 3.687930016029612 -0.5013391059085579 3.655499819229612 C -0.5013391059085579 3.6235843874581835 -0.5224444720799866 3.605052846429612 -0.5497270185942723 3.605052846429612 C -0.5651699694514152 3.605052846429612 -0.584216275508558 3.6107152617438976 -0.6073807017942723 3.6215253273438974 L -0.6290008329942722 3.6318206279153262 C -0.649076669108558 3.641086398429612 -0.670696800308558 3.6467488137438977 -0.6938612265942723 3.649322638886755 C -0.6902578713942723 3.618436737172469 -0.6820216309371294 3.5911541906581834 -0.6691525052228438 3.5664454692867547 C -0.6562833795085581 3.5422515129438974 -0.6495914341371294 3.5216609118010402 -0.6495914341371294 3.5051884308867547 C -0.6495914341371294 3.4784206494010403 -0.6650343849942724 3.45680051820104 -0.7000384069371295 3.45680051820104 C -0.735557193908558 3.45680051820104 -0.7515149097942724 3.477905884372469 -0.7515149097942724 3.5051884308867547 C -0.7515149097942724 3.5221756768296117 -0.7473967895657009 3.532985742429612 -0.7237175982514152 3.5844622452867547 C -0.7154813577942722 3.602479021286755 -0.7098189424799866 3.6240991524867545 -0.7072451173371295 3.649322638886755 C -0.7324686037371295 3.6467488137438977 -0.7582068551657009 3.639027338315326 -0.7854894016799866 3.6251286825438975 C -0.812257612136558 3.6117447918010406 -0.8343925083651295 3.605052846429612 -0.8513797543079866 3.605052846429612 C -0.8781475357937009 3.605052846429612 -0.8997676669937009 3.623069622429612 -0.8997676669937009 3.655499819229612 C -0.8997676669937009 3.687930016029612 -0.8786623008222724 3.7059467920296116 -0.8513797543079866 3.7059467920296116 C -0.8328482132794152 3.7059467920296116 -0.8215233826508438 3.7018286718010405 -0.7721055109371294 3.6791790105438977 C -0.7540887349371295 3.6709427700867545 -0.7324686037371295 3.665280354772469 -0.7072451173371295 3.6627065296296117 C -0.7108484725371294 3.6935924313438977 -0.7190847129942723 3.720874977858183 -0.731953838708558 3.745583699229612 C -0.7448229644228437 3.769777655572469 -0.7515149097942724 3.789853491686755 -0.7515149097942724 3.805811207572469 C -0.7515149097942724 3.8341232841438977 -0.7340128988228437 3.8552286503153264 -0.7000384069371295 3.8552286503153264 Z" fill="#ffffff" transform="matrix(1,0,0,1,0,0)" fill-rule="nonzero"></path></g></g><g transform="matrix(0.719824578514053,-0.6941560171654971,-0.6941560171654971,-0.719824578514053,3.8591754953724595,9.561402200102686)"><g clip-path="url(#SvgjsClipPath30276)"><path d=" M 4.770171263618346 3.8552286503153264 C 4.803116225446918 3.8552286503153264 4.820618236418347 3.8346380491724688 4.820618236418347 3.805811207572469 C 4.820618236418347 3.7903682567153263 4.817014881218347 3.776984365972469 4.803116225446918 3.749187054429612 C 4.783555154361204 3.7105796772867548 4.7799517991612035 3.6982253166010404 4.776348443961203 3.6627065296296117 C 4.801571930361203 3.665280354772469 4.823192061561204 3.6709427700867545 4.8412088375612035 3.6791790105438977 C 4.887537690132632 3.700284376715326 4.900921580875489 3.7059467920296116 4.920482651961204 3.7059467920296116 C 4.947250433446918 3.7059467920296116 4.968870564646918 3.687930016029612 4.968870564646918 3.655499819229612 C 4.968870564646918 3.6235843874581835 4.94776519847549 3.605052846429612 4.920482651961204 3.605052846429612 C 4.9050397011040605 3.605052846429612 4.885993395046918 3.6107152617438976 4.862828968761203 3.6215253273438974 L 4.8412088375612035 3.6318206279153262 C 4.821133001446918 3.641086398429612 4.799512870246918 3.6467488137438977 4.776348443961203 3.649322638886755 C 4.7799517991612035 3.618436737172469 4.788188039618347 3.5911541906581834 4.801057165332632 3.5664454692867547 C 4.813926291046918 3.5422515129438974 4.820618236418347 3.5216609118010402 4.820618236418347 3.5051884308867547 C 4.820618236418347 3.4784206494010403 4.805175285561203 3.45680051820104 4.770171263618346 3.45680051820104 C 4.734652476646918 3.45680051820104 4.7186947607612035 3.477905884372469 4.7186947607612035 3.5051884308867547 C 4.7186947607612035 3.5221756768296117 4.722812880989775 3.532985742429612 4.7464920723040604 3.5844622452867547 C 4.754728312761204 3.602479021286755 4.760390728075489 3.6240991524867545 4.762964553218346 3.649322638886755 C 4.737741066818346 3.6467488137438977 4.712002815389775 3.639027338315326 4.684720268875489 3.6251286825438975 C 4.657952058418918 3.6117447918010406 4.635817162190347 3.605052846429612 4.618829916247489 3.605052846429612 C 4.592062134761775 3.605052846429612 4.570442003561775 3.623069622429612 4.570442003561775 3.655499819229612 C 4.570442003561775 3.687930016029612 4.591547369733203 3.7059467920296116 4.618829916247489 3.7059467920296116 C 4.637361457276061 3.7059467920296116 4.648686287904632 3.7018286718010405 4.698104159618347 3.6791790105438977 C 4.716120935618346 3.6709427700867545 4.737741066818346 3.665280354772469 4.762964553218346 3.6627065296296117 C 4.759361198018347 3.6935924313438977 4.751124957561204 3.720874977858183 4.738255831846918 3.745583699229612 C 4.725386706132632 3.769777655572469 4.7186947607612035 3.789853491686755 4.7186947607612035 3.805811207572469 C 4.7186947607612035 3.8341232841438977 4.736196771732632 3.8552286503153264 4.770171263618346 3.8552286503153264 Z" fill="#ffffff" transform="matrix(1,0,0,1,0,0)" fill-rule="nonzero"></path></g></g></g><defs><clipPath id="SvgjsClipPath30274"><path d=" M 0 0 h 4.069090457498359 v 3.5190847881974165 h -4.069090457498359 Z"></path></clipPath><clipPath id="SvgjsClipPath3027069a208eb-8916-42ef-8664-70564cfa6809"><path d=" M 0 0 L 4.069090457498359 0 L 4.069090457498359 3.5190847881974165 L 0 3.5190847881974165 Z"></path></clipPath><clipPath id="SvgjsClipPath30275"><path d=" M -1.000839206528558 3.3341148530581832 h 0.6005592000000001 v 0.6005592000000001 h -0.6005592000000001 Z"></path></clipPath><clipPath id="SvgjsClipPath30276"><path d=" M 4.469370464026918 3.3341148530581832 h 0.6005592000000001 v 0.6005592000000001 h -0.6005592000000001 Z"></path></clipPath></defs></svg>